<svg width="100" height="100" viewBox="0 0 100 100" fill="none" xmlns="http://www.w3.org/2000/svg">
<path d="M54.848 15.762C54.848 14.0472 57.1488 12.6643 59.9886 12.6643C62.8245 12.6643 65.1331 14.0471 65.1331 15.762C65.1331 17.4768 62.8323 18.8597 59.9886 18.8597C57.1449 18.8597 54.848 17.4691 54.848 15.762ZM82.852 27.985C80.6645 28.6803 78.8598 31.0319 78.8598 33.2311C78.8598 35.4303 80.6489 36.653 82.852 35.9733C85.0551 35.2975 86.8364 32.9264 86.8364 30.7077C86.8364 28.489 85.0552 27.2858 82.852 27.985V27.985ZM82.852 44.169C80.6489 44.8682 78.8598 47.2198 78.8598 49.4229C78.8598 51.626 80.6489 52.8448 82.852 52.1417C85.0551 51.4386 86.8403 49.0948 86.8403 46.8917C86.8364 44.6886 85.0551 43.4698 82.852 44.169ZM69.215 35.7549C67.0119 36.4541 65.2267 38.8057 65.2267 41.0049C65.2267 43.2041 67.0119 44.4268 69.215 43.7471C71.4181 43.0713 73.215 40.6807 73.215 38.4815C73.215 36.2823 71.4181 35.0596 69.215 35.7549ZM45.305 45.001C45.305 43.2822 42.9964 41.8916 40.1448 41.8916C37.2932 41.8916 34.9807 43.2822 34.9807 45.001C34.9807 46.7198 37.2932 48.1104 40.1448 48.1104C42.9964 48.1104 45.2932 46.7198 45.2932 45.0049L45.305 45.001ZM18.157 58.599C15.9461 57.8959 14.1531 59.1224 14.1531 61.3412C14.1531 63.5599 15.9461 65.9115 18.157 66.6146C20.3679 67.3177 22.1609 66.0911 22.1609 63.8724C22.157 61.6497 20.3679 59.2982 18.157 58.599V58.599ZM30.177 78.326C27.9661 77.6111 26.1809 78.8494 26.1809 81.0604C26.1809 83.2713 27.9739 85.6307 30.1848 86.3338C32.3957 87.0369 34.1887 85.8103 34.1887 83.5916C34.1848 81.3728 32.384 79.0291 30.177 78.326V78.326ZM48.915 82.3143C46.7041 83.0174 44.9111 85.3768 44.9111 87.5877C44.9111 89.7986 46.7041 91.0213 48.915 90.3299C51.1259 89.6424 52.915 87.2518 52.915 85.0604C52.915 82.869 51.1181 81.6034 48.915 82.3143ZM55.7041 69.5603C53.4932 70.2634 51.7002 72.6228 51.7002 74.8337C51.7002 77.0446 53.4932 78.2673 55.7041 77.5759C57.915 76.8845 59.708 74.5134 59.708 72.3025C59.708 70.0955 57.9072 68.8494 55.6963 69.5486L55.7041 69.5603ZM63.0869 57.2833C60.876 57.9864 59.083 60.3458 59.083 62.5567C59.083 64.7676 60.876 65.9903 63.0869 65.2989C65.2978 64.6075 67.0947 62.2364 67.0947 60.0255C67.0947 57.8185 65.29 56.5724 63.083 57.2716L63.0869 57.2833ZM91.0749 22.2633V51.2163C91.071 52.7358 90.2702 54.1382 88.9616 54.9116L71.3206 65.2786V80.5906L71.3245 80.5945C71.3206 82.1179 70.5159 83.5281 69.2034 84.3015L45.5864 98.1845C45.5317 98.2275 45.4653 98.2704 45.3872 98.3212C42.0356 100.349 40.2466 100.606 36.727 98.7118L36.6254 98.6611L36.4262 98.5439C36.0825 98.3564 35.7192 98.1532 35.3364 97.9111L11.0824 83.8601C9.75432 83.0905 8.93402 81.6726 8.93402 80.1374V51.4894V50.5792V50.4815V50.3995C9.01996 46.2901 10.0082 45.3565 13.766 43.2628C13.8129 43.2355 13.8402 43.2277 13.8793 43.2081L28.9223 34.8331V22.2241V21.3179V21.2202V21.1421C29.0043 17.0483 29.9926 16.1187 33.7348 14.0288C33.7778 14.0054 33.809 13.9975 33.8481 13.9741L57.9301 0.540105C59.2504 -0.190365 60.8598 -0.174735 62.1684 0.579168L86.8634 14.8802C86.9259 14.9153 86.9806 14.9583 87.0392 14.9974C89.8634 16.7162 91.0939 18.1576 91.0665 22.2552L91.0749 22.2633ZM33.1449 17.1695C33.1332 17.6851 33.4027 18.1656 33.848 18.4234L59 33.1074C59.8008 33.5761 60.793 33.5761 61.5938 33.1074L86.0118 18.8184C86.4493 18.5606 86.7228 18.0879 86.7228 17.5801C86.7228 17.0723 86.4493 16.5996 86.0118 16.3418L61.3168 2.04079V2.04469C60.5278 1.59547 59.5629 1.59547 58.7738 2.04469L33.8718 15.9197C33.4187 16.1658 33.1375 16.6384 33.1375 17.1541L33.1449 17.1695ZM30.6215 33.8765L34.0434 31.9703C33.3676 31.0836 32.9848 30.0055 32.9496 28.8883C32.9496 26.6852 34.7387 25.4664 36.9418 26.1461C38.4301 26.6734 39.6527 27.7594 40.352 29.1773C41.0395 29.2007 41.7114 29.396 42.309 29.7398L49.4184 33.8609C50.2153 33.4859 51.1293 33.4429 51.9575 33.7437C53.6919 34.3609 55.0552 35.732 55.6645 37.4742L59.4965 39.7086V36.9664C59.4965 36.0484 59.0082 35.2008 58.2153 34.7398L32.7743 19.9938C32.5595 19.8649 32.3134 19.7946 32.0595 19.7868C31.2704 19.7868 30.6298 20.4274 30.6259 21.2204L30.6215 33.8765ZM39.6371 66.2945V66.2906C39.6371 65.3687 39.1449 64.5211 38.348 64.0562L12.813 49.2402C12.5943 49.1113 12.3482 49.0449 12.0943 49.0449C11.8404 49.0449 11.5943 49.1113 11.3755 49.2363C10.9263 49.4902 10.6529 49.9707 10.6568 50.4824V80.1384C10.6568 81.0563 11.149 81.9079 11.9459 82.3689L37.4889 97.1849V97.1888C37.9342 97.4427 38.4811 97.4466 38.9264 97.1888C39.3717 96.931 39.649 96.4583 39.649 95.9427L39.6371 66.2945ZM41.7348 62.4L66.2428 48.091L66.2389 48.0871C66.6842 47.8293 66.9538 47.3566 66.9538 46.841C66.9577 46.3293 66.6842 45.8566 66.235 45.6027L41.465 31.2477C40.672 30.8024 39.7033 30.8024 38.9103 31.2477L13.9183 45.1617C13.4652 45.4117 13.1839 45.8843 13.1761 46.4C13.1722 46.9195 13.4456 47.3961 13.8909 47.6578L39.1409 62.3958C39.9456 62.8606 40.9417 62.8606 41.7464 62.3958L41.7348 62.4ZM69.6018 51.033L69.5979 51.0291C69.5979 50.2361 68.9573 49.5955 68.1643 49.5916C67.9104 49.5916 67.6604 49.658 67.4417 49.7869L43.0356 63.8919C42.2388 64.3567 41.7465 65.2083 41.7465 66.1302V95.9192C41.7426 96.4348 42.02 96.9114 42.4692 97.1692C42.9145 97.4231 43.4653 97.4231 43.9106 97.1575L68.3406 82.7825V82.7864C69.1297 82.3215 69.614 81.4739 69.614 80.5598L69.6018 51.033ZM89.3438 21.767V21.7631C89.3477 21.2514 89.0743 20.7787 88.629 20.5248C88.1876 20.2631 87.6368 20.2631 87.1954 20.5248L62.8754 34.5868C62.0785 35.0477 61.5902 35.8993 61.5863 36.8173V40.915L67.1097 44.1142C67.1722 44.1493 67.2308 44.1923 67.2894 44.2353C70.1214 45.9658 71.3558 47.4111 71.3324 51.5205V53.0713C72.2425 53.5986 72.7777 54.5947 72.7191 55.6455C72.6722 56.9228 72.18 58.1416 71.3324 59.0986V63.2822L88.0864 53.4228C88.8715 52.9579 89.352 52.1181 89.3559 51.204L89.3438 21.767Z" fill="black"/>
</svg>
